<svg xmlns="http://www.w3.org/2000/svg" version="1.1" xmlns:xlink="http://www.w3.org/1999/xlink" xmlns:svgjs="http://svgjs.dev/svgjs" viewBox="0 0 1000 1000"><rect width="400" height="100" fill="#bb84e8"></rect><g transform="matrix(0.7,0,0,0.7,149.57575757575756,282.1265587044535)"><svg viewBox="0 0 396 247" data-background-color="#bb84e8" preserveAspectRatio="xMidYMid meet" height="400" width="100" xmlns="http://www.w3.org/2000/svg" xmlns:xlink="http://www.w3.org/1999/xlink"><defs></defs><g id="tight-bounds" transform="matrix(1,0,0,1,0.2400000000000091,-0.09999999999999432)"><svg viewBox="0 0 395.52 247.2" height="247.2" width="395.52"><g><svg></svg></g><g><svg viewBox="0 0 395.52 247.2" height="247.2" width="395.52"><g transform="matrix(1,0,0,1,75.54432,110.17712546325971)"><svg viewBox="0 0 244.43135999999998 26.845749073480558" height="26.845749073480558" width="244.43135999999998"><g><svg viewBox="0 0 244.43135999999998 26.845749073480558" height="26.845749073480558" width="244.43135999999998"><g><svg viewBox="0 0 316.63278120118304 34.77558768467856" height="26.845749073480558" width="244.43135999999998"><g transform="matrix(1,0,0,1,0,4.806177458591613)"><svg viewBox="0 0 244.43135999999998 25.163232767495337" height="25.163232767495337" width="244.43135999999998"><g><svg viewBox="0 0 244.43135999999998 25.163232767495337" height="25.163232767495337" width="244.43135999999998"><g><svg viewBox="0 0 244.43135999999998 25.163232767495337" height="25.163232767495337" width="244.43135999999998"><g transform="matrix(1,0,0,1,0,0)"><svg width="244.43135999999998" viewBox="-0.5 -37.5 461.37 47" height="25.163232767495337" data-palette-color="#454545"><g class="undefined-text-0" data-fill-palette-color="primary" id="text-0"><path d="M25.5-26.65Q29.2-26.65 31.43-24 33.65-21.35 33.65-17L33.65-17Q33.65-14.75 33.1-12.6L33.1-12.6Q31.5-6.15 27.63-2.85 23.75 0.45 18.7 0.45L18.7 0.45Q15.85 0.45 13.78-0.53 11.7-1.5 10.45-3.3L10.45-3.3 8.65-1.75Q7.6-0.85 6.6-0.43 5.6 0 4.3 0L4.3 0 2.1 0Q0.85 0 0.18-0.53-0.5-1.05-0.5-2.05L-0.5-2.05Q-0.5-2.5-0.35-3.1L-0.35-3.1 8-30.25Q8.15-30.7 8.15-31L8.15-31Q8.15-31.85 7.1-32.6L7.1-32.6Q6.6-33.05 6.4-33.33 6.2-33.6 6.35-34.05L6.35-34.05Q6.7-35.2 9.53-36.08 12.35-36.95 15.45-36.95L15.45-36.95Q18.35-36.95 19.73-35.83 21.1-34.7 21.1-32.8L21.1-32.8Q21.1-31.75 20.75-30.7L20.75-30.7 18.65-23.9Q21.55-26.65 25.5-26.65L25.5-26.65ZM19.85-12.9Q20.85-16.3 20.85-18.4L20.85-18.4Q20.85-20.7 19.5-20.7L19.5-20.7Q18.3-20.7 17.25-19.45L17.25-19.45 14-8.85 13.7-7.9 13.7-7.9Q13.45-7.15 13.45-6.35L13.45-6.35Q13.45-4.6 15.1-4.6L15.1-4.6Q16.3-4.6 17.4-6.35 18.5-8.1 19.85-12.9L19.85-12.9ZM58.4-26.45Q61.2-26.45 62.87-24.75 64.55-23.05 64.55-20.55L64.55-20.55Q64.55-19.6 64.35-18.8L64.35-18.8Q63.85-16.75 62.45-15.65 61.05-14.55 59.1-14.55L59.1-14.55Q57.2-14.55 56.22-15.45 55.25-16.35 54.5-17.85L54.5-17.85Q54.1-18.7 53.75-19.1 53.4-19.5 52.95-19.5L52.95-19.5Q52.45-19.5 52.07-19.1 51.7-18.7 51.4-17.7L51.4-17.7 47.55-5.2Q47.45-4.95 47.45-4.45L47.45-4.45Q47.45-3.8 47.82-3.38 48.2-2.95 48.85-2.55L48.85-2.55Q49.45-2.15 49.65-1.9 49.85-1.65 49.8-1.25L49.8-1.25Q49.7-0.6 49.07-0.3 48.45 0 46.95 0L46.95 0 34.15 0Q32.85 0 32.27-0.43 31.7-0.85 31.85-1.55L31.85-1.55Q32.05-2.15 32.9-2.6L32.9-2.6Q33.65-3 34.15-3.55 34.65-4.1 35-5.3L35-5.3 39.45-19.75Q39.55-20 39.55-20.45L39.55-20.45Q39.55-21 39.32-21.3 39.1-21.6 38.6-22.05L38.6-22.05Q38.1-22.45 37.9-22.75 37.7-23.05 37.85-23.55L37.85-23.55Q38.15-24.7 41-25.58 43.85-26.45 46.95-26.45L46.95-26.45Q49-26.45 50.35-25.53 51.7-24.6 52.1-22.9L52.1-22.9Q54.5-26.45 58.4-26.45L58.4-26.45ZM75.8-26.45Q78.7-26.45 80.05-25.35 81.4-24.25 81.4-22.35L81.4-22.35Q81.4-21.2 81.05-20.15L81.05-20.15 76.45-5.2Q76.3-4.6 76.3-4.15L76.3-4.15Q76.3-3.5 76.55-3.13 76.8-2.75 77.25-2.4L77.25-2.4Q77.6-2.05 77.75-1.83 77.9-1.6 77.8-1.25L77.8-1.25Q77.55-0.6 76.8-0.3 76.05 0 74.5 0L74.5 0 63.1 0Q61.8 0 61.2-0.43 60.6-0.85 60.8-1.55L60.8-1.55Q61-2.15 61.85-2.6L61.85-2.6Q62.6-3 63.1-3.55 63.6-4.1 63.95-5.3L63.95-5.3 68.3-19.75Q68.45-20.2 68.45-20.5L68.45-20.5Q68.45-21.05 68.2-21.38 67.95-21.7 67.45-22.05L67.45-22.05Q66.95-22.45 66.75-22.75 66.55-23.05 66.7-23.55L66.7-23.55Q67-24.7 69.85-25.58 72.7-26.45 75.8-26.45L75.8-26.45ZM79.15-37.5Q81.1-37.5 82.4-36.23 83.7-34.95 83.7-33.1L83.7-33.1Q83.7-31.8 83.02-30.55 82.35-29.3 81.12-28.53 79.9-27.75 78.4-27.75L78.4-27.75Q76.5-27.75 75.22-29.03 73.95-30.3 73.9-32.2L73.9-32.2Q73.9-33.45 74.55-34.68 75.2-35.9 76.4-36.7 77.6-37.5 79.15-37.5L79.15-37.5ZM103.44-25.8Q104.39-25.8 104.92-25.4 105.44-25 105.44-24.3L105.44-24.3Q105.44-24.1 105.34-23.6L105.34-23.6Q104.69-21.4 102.34-21.4L102.34-21.4 99.44-21.4 95.69-9.05Q95.44-8.3 95.44-7.5L95.44-7.5Q95.44-6.6 95.94-6.25 96.44-5.9 97.34-5.9L97.34-5.9Q98.14-5.9 99.34-6.1L99.34-6.1Q99.94-6.25 100.39-6.25L100.39-6.25Q100.74-6.25 100.92-6.03 101.09-5.8 101.09-5.45L101.09-5.45Q101.14-4.45 99.62-3.03 98.09-1.6 95.49-0.58 92.89 0.45 89.74 0.45L89.74 0.45Q86.34 0.45 84.29-1.1 82.24-2.65 82.24-5.35L82.24-5.35Q82.24-6.6 82.64-7.75L82.64-7.75 85.84-17.65Q86.09-18.5 86.09-19L86.09-19Q86.09-20 85.62-20.7 85.14-21.4 84.29-22.15L84.29-22.15Q83.54-22.85 83.24-23.33 82.94-23.8 83.09-24.45L83.09-24.45Q83.29-25.1 83.94-25.45 84.59-25.8 85.99-25.8L85.99-25.8 88.79-25.8 91.94-28.95Q93.59-30.6 94.97-31.25 96.34-31.9 98.54-31.9L98.54-31.9Q101.69-31.9 101.69-29.5L101.69-29.5Q101.69-28.75 101.49-28.1L101.49-28.1 100.79-25.8 103.44-25.8ZM124.94-25.8Q125.89-25.8 126.42-25.4 126.94-25 126.94-24.3L126.94-24.3Q126.94-24.1 126.84-23.6L126.84-23.6Q126.19-21.4 123.84-21.4L123.84-21.4 120.94-21.4 117.19-9.05Q116.94-8.3 116.94-7.5L116.94-7.5Q116.94-6.6 117.44-6.25 117.94-5.9 118.84-5.9L118.84-5.9Q119.64-5.9 120.84-6.1L120.84-6.1Q121.44-6.25 121.89-6.25L121.89-6.25Q122.24-6.25 122.42-6.03 122.59-5.8 122.59-5.45L122.59-5.45Q122.64-4.45 121.12-3.03 119.59-1.6 116.99-0.58 114.39 0.45 111.24 0.45L111.24 0.45Q107.84 0.45 105.79-1.1 103.74-2.65 103.74-5.35L103.74-5.35Q103.74-6.6 104.14-7.75L104.14-7.75 107.34-17.65Q107.59-18.5 107.59-19L107.59-19Q107.59-20 107.12-20.7 106.64-21.4 105.79-22.15L105.79-22.15Q105.04-22.85 104.74-23.33 104.44-23.8 104.59-24.45L104.59-24.45Q104.79-25.1 105.44-25.45 106.09-25.8 107.49-25.8L107.49-25.8 110.29-25.8 113.44-28.95Q115.09-30.6 116.47-31.25 117.84-31.9 120.04-31.9L120.04-31.9Q123.19-31.9 123.19-29.5L123.19-29.5Q123.19-28.75 122.99-28.1L122.99-28.1 122.29-25.8 124.94-25.8ZM158.09-16.75L155.04-6.9Q154.94-6.7 154.94-6.3L154.94-6.3Q154.94-5.95 155.11-5.75 155.29-5.55 155.59-5.55L155.59-5.55Q156.19-5.55 156.61-6.08 157.04-6.6 157.19-6.6L157.19-6.6Q157.44-6.6 157.59-6.28 157.74-5.95 157.74-5.5L157.74-5.5Q157.79-4.05 156.79-2.68 155.79-1.3 153.86-0.43 151.94 0.45 149.24 0.45L149.24 0.45Q145.94 0.45 143.99-1.07 142.04-2.6 141.99-5.15L141.99-5.15Q141.99-7 142.89-9.3L142.89-9.3 145.64-16.5Q145.89-17.15 145.89-17.55L145.89-17.55Q145.89-18.2 145.46-18.57 145.04-18.95 144.44-18.95L144.44-18.95Q143.34-18.95 142.34-17.93 141.34-16.9 140.89-15.4L140.89-15.4 137.79-5.2Q137.59-4.65 137.59-4.15L137.59-4.15Q137.59-3.55 137.84-3.18 138.09-2.8 138.54-2.4L138.54-2.4Q138.89-2.1 139.04-1.85 139.19-1.6 139.09-1.25L139.09-1.25Q138.89-0.6 138.14-0.3 137.39 0 135.79 0L135.79 0 124.39 0Q123.09 0 122.51-0.43 121.94-0.85 122.09-1.55L122.09-1.55Q122.29-2.15 123.14-2.6L123.14-2.6Q123.89-3 124.39-3.55 124.89-4.1 125.24-5.3L125.24-5.3 129.69-19.75Q129.79-20 129.79-20.45L129.79-20.45Q129.79-21 129.56-21.3 129.34-21.6 128.84-22.05L128.84-22.05Q128.34-22.45 128.14-22.75 127.94-23.05 128.09-23.55L128.09-23.55Q128.39-24.7 131.24-25.58 134.09-26.45 137.19-26.45L137.19-26.45Q139.69-26.45 141.14-25.08 142.59-23.7 142.44-21.25L142.44-21.25Q144.49-24.2 146.79-25.33 149.09-26.45 151.79-26.45L151.79-26.45Q154.84-26.45 156.71-24.6 158.59-22.75 158.59-19.8L158.59-19.8Q158.59-18.25 158.09-16.75L158.09-16.75ZM176.84-26.7Q183.19-26.7 186.04-24.68 188.89-22.65 188.89-19.5L188.89-19.5Q188.89-18.55 188.69-17.75L188.69-17.75Q187.94-14.45 184.51-13.03 181.09-11.6 176.44-11.6L176.44-11.6Q174.09-11.6 172.04-11.9L172.04-11.9Q171.99-9.3 173.44-8.25 174.89-7.2 177.49-7.2L177.49-7.2Q178.69-7.2 179.79-7.48 180.89-7.75 182.59-8.3L182.59-8.3Q183.99-8.8 184.49-8.8L184.49-8.8Q185.04-8.8 185.04-8.15L185.04-8.15Q185.09-6.4 183.74-4.48 182.39-2.55 179.74-1.2 177.09 0.15 173.34 0.15L173.34 0.15Q167.79 0.15 164.24-2.65 160.69-5.45 160.69-10.8L160.69-10.8Q160.69-12.3 161.09-14.3L161.09-14.3Q162.34-20.45 166.56-23.58 170.79-26.7 176.84-26.7L176.84-26.7ZM172.39-14.9Q172.59-14.85 172.94-14.85L172.94-14.85Q175.04-14.85 176.14-16.8 177.24-18.75 177.19-21.15L177.19-21.15Q177.14-22.55 176.39-22.55L176.39-22.55Q175.84-22.55 175.09-21.68 174.34-20.8 173.61-19.05 172.89-17.3 172.39-14.9L172.39-14.9ZM214.38-26.45Q216.58-26.45 217.91-24.68 219.23-22.9 219.23-19.85L219.23-19.85Q219.23-17.2 218.28-14.15L218.28-14.15Q216.43-8 212.36-2.55 208.28 2.9 203.01 6.2 197.73 9.5 192.48 9.5L192.48 9.5Q189.88 9.5 188.01 8.6 186.13 7.7 185.16 6.2 184.18 4.7 184.18 3L184.18 3Q184.18 2.25 184.43 1.35L184.43 1.35Q184.88-0.05 185.93-0.8 186.98-1.55 188.43-1.55L188.43-1.55Q190.73-1.55 192.21 0.03 193.68 1.6 194.08 4.35L194.08 4.35Q197.28 4.2 199.98 1.6L199.98 1.6Q197.43 1.15 196.21-0.13 194.98-1.4 194.53-4.1L194.53-4.1 192.53-16.35Q192.38-17.3 192.11-17.68 191.83-18.05 191.38-18.05L191.38-18.05Q191.03-18.05 190.56-17.7 190.08-17.35 189.88-17.35L189.88-17.35Q189.48-17.35 189.48-18.2L189.48-18.2Q189.48-18.9 189.73-19.7L189.73-19.7Q190.63-22.55 193.08-24.53 195.53-26.5 198.78-26.5L198.78-26.5Q201.98-26.5 203.51-24.6 205.03-22.7 205.48-18.75L205.48-18.75 206.98-7.75Q207.13-6.5 207.88-6.5L207.88-6.5Q208.78-6.5 209.98-8.13 211.18-9.75 212.33-12.75L212.33-12.75Q210.83-14.1 210.03-15.85 209.23-17.6 209.23-19.6L209.23-19.6Q209.23-21.15 209.63-22.4L209.63-22.4Q210.23-24.4 211.51-25.43 212.78-26.45 214.38-26.45L214.38-26.45Z" fill="#454545" data-fill-palette-color="primary"></path><path d="M266.18-19.35Q266.18-14.9 263.08-10.25 259.98-5.6 255.25-2.58 250.53 0.45 245.98 0.45L245.98 0.45Q242.38 0.45 239.88-0.8 237.38-2.05 236.63-4.4L236.63-4.4Q234.78-2.15 232.53-1 230.28 0.15 227.83 0.15L227.83 0.15Q224.43 0.15 222.31-1.53 220.18-3.2 220.18-6.45L220.18-6.45Q220.18-8.15 220.73-9.95L220.73-9.95 223.53-19.75Q223.63-20.15 223.63-20.35L223.63-20.35Q223.63-20.85 223.38-21.2 223.13-21.55 222.68-21.95L222.68-21.95Q221.93-22.6 221.93-23.1L221.93-23.1Q221.88-23.8 222.78-24.6 223.68-25.4 225.31-25.93 226.93-26.45 228.98-26.45L228.98-26.45Q232.33-26.45 234.21-24.83 236.08-23.2 236.08-20.6L236.08-20.6Q236.08-19.45 235.68-18.1L235.68-18.1 233.13-9.6Q232.93-8.9 232.93-8.65L232.93-8.65Q232.93-8 233.31-7.65 233.68-7.3 234.33-7.3L234.33-7.3Q235.23-7.3 235.86-7.93 236.48-8.55 237.08-9.95L237.08-9.95 239.93-19.75Q240.03-20.15 240.03-20.35L240.03-20.35Q240.03-20.85 239.78-21.2 239.53-21.55 239.08-21.95L239.08-21.95Q238.33-22.6 238.33-23.1L238.33-23.1Q238.28-23.8 239.18-24.6 240.08-25.4 241.71-25.93 243.33-26.45 245.38-26.45L245.38-26.45Q248.78-26.45 250.63-24.85 252.48-23.25 252.48-20.6L252.48-20.6Q252.48-19.55 252.08-18.1L252.08-18.1 248.83-7.4Q248.73-7.15 248.73-6.65L248.73-6.65Q248.73-6 249.18-5.65 249.63-5.3 250.43-5.3L250.43-5.3Q251.53-5.3 253-6.28 254.48-7.25 255.91-9.08 257.33-10.9 258.23-13.4L258.23-13.4Q256.23-15.15 255.41-16.85 254.58-18.55 254.58-20.35L254.58-20.35Q254.58-22.9 255.98-24.68 257.38-26.45 260.03-26.45L260.03-26.45Q262.68-26.45 264.43-24.55 266.18-22.65 266.18-19.35L266.18-19.35ZM284.93-26.45Q291.73-26.45 294.95-23.7 298.18-20.95 298.18-16.5L298.18-16.5Q298.18-15 297.78-13.15L297.78-13.15Q296.83-9.05 294.23-5.98 291.63-2.9 287.85-1.23 284.08 0.45 279.68 0.45L279.68 0.45Q272.73 0.45 269.4-2.33 266.08-5.1 266.08-9.7L266.08-9.7Q266.08-11.25 266.48-13.15L266.48-13.15Q267.43-17.05 270.1-20.08 272.78-23.1 276.65-24.78 280.53-26.45 284.93-26.45L284.93-26.45ZM284.78-22Q283.73-22 282.55-20.13 281.38-18.25 279.78-13.05L279.78-13.05Q278.18-7.85 278.18-5.75L278.18-5.75Q278.18-4.65 278.53-4.28 278.88-3.9 279.48-3.9L279.48-3.9Q280.53-3.8 281.65-5.7 282.78-7.6 284.48-13.1L284.48-13.1Q286.03-17.95 286.03-20.15L286.03-20.15Q286.03-21.2 285.7-21.6 285.38-22 284.78-22L284.78-22ZM317.73-26.45Q324.53-26.45 327.75-23.7 330.98-20.95 330.98-16.5L330.98-16.5Q330.98-15 330.58-13.15L330.58-13.15Q329.63-9.05 327.03-5.98 324.43-2.9 320.65-1.23 316.88 0.45 312.48 0.45L312.48 0.45Q305.53 0.45 302.2-2.33 298.88-5.1 298.88-9.7L298.88-9.7Q298.88-11.25 299.28-13.15L299.28-13.15Q300.23-17.05 302.9-20.08 305.58-23.1 309.45-24.78 313.33-26.45 317.73-26.45L317.73-26.45ZM317.58-22Q316.53-22 315.35-20.13 314.18-18.25 312.58-13.05L312.58-13.05Q310.98-7.85 310.98-5.75L310.98-5.75Q310.98-4.65 311.33-4.28 311.68-3.9 312.28-3.9L312.28-3.9Q313.33-3.8 314.45-5.7 315.58-7.6 317.28-13.1L317.28-13.1Q318.83-17.95 318.83-20.15L318.83-20.15Q318.83-21.2 318.5-21.6 318.18-22 317.58-22L317.58-22ZM359.12-7.2Q359.02-6.8 359.02-6.65L359.02-6.65Q359.02-6.3 359.22-6.1 359.42-5.9 359.72-5.9L359.72-5.9Q360.32-5.9 360.75-6.43 361.17-6.95 361.32-6.95L361.32-6.95Q361.57-6.95 361.72-6.6 361.87-6.25 361.87-5.8L361.87-5.8Q361.92-4.45 360.85-3.05 359.77-1.65 357.97-0.75 356.17 0.15 354.07 0.15L354.07 0.15Q351.57 0.15 349.72-0.8 347.87-1.75 347.17-3.3L347.17-3.3Q345.82-1.55 344.07-0.7 342.32 0.15 340.37 0.15L340.37 0.15Q338.07 0.15 336.1-1 334.12-2.15 332.95-4.28 331.77-6.4 331.77-9.1L331.77-9.1Q331.77-13.65 333.5-17.68 335.22-21.7 338.32-24.18 341.42-26.65 345.37-26.65L345.37-26.65Q347.52-26.65 349.05-26.15 350.57-25.65 351.82-24.65L351.82-24.65 353.52-30.25Q353.67-30.7 353.67-31L353.67-31Q353.67-31.55 353.4-31.9 353.12-32.25 352.67-32.6L352.67-32.6Q352.17-33 351.95-33.3 351.72-33.6 351.87-34.1L351.87-34.1Q352.17-35.25 355.02-36.1 357.87-36.95 360.97-36.95L360.97-36.95Q363.87-36.95 365.25-35.85 366.62-34.75 366.62-32.85L366.62-32.85Q366.62-31.75 366.27-30.7L366.27-30.7 359.12-7.2ZM350.77-21.25Q349.97-21.95 349.02-21.95L349.02-21.95Q347.57-21.95 346.17-19.8 344.77-17.65 343.92-14.6 343.07-11.55 343.12-9.1L343.12-9.1Q343.12-6.35 344.92-6.35L344.92-6.35Q345.57-6.35 346.02-6.88 346.47-7.4 346.87-8.6L346.87-8.6 350.77-21.25ZM380.37-26.9Q384.52-26.9 387.55-26.15 390.57-25.4 392.2-24.05 393.82-22.7 393.82-21L393.82-21Q393.82-19.25 392.45-18.15 391.07-17.05 388.62-17.05L388.62-17.05Q386.12-17.05 384.4-18.3 382.67-19.55 382.67-21.45L382.67-21.45Q382.67-22.1 382.87-22.7L382.87-22.7Q381.97-22.95 381.27-22.95L381.27-22.95Q380.02-22.95 379.2-22.35 378.37-21.75 378.42-20.65L378.42-20.65Q378.42-19.35 379.72-18.45 381.02-17.55 383.92-16.2L383.92-16.2Q386.42-15.1 388.05-14.18 389.67-13.25 390.8-11.85 391.92-10.45 391.92-8.55L391.92-8.55Q391.92-8.15 391.72-7.05L391.72-7.05Q390.92-3.7 387.27-1.75 383.62 0.2 377.67 0.2L377.67 0.2Q370.97 0.2 367.05-1.6 363.12-3.4 363.12-6.55L363.12-6.55Q363.12-8.7 364.42-9.8 365.72-10.9 367.87-10.9L367.87-10.9Q370.37-10.9 372.15-9.35 373.92-7.8 373.92-5.4L373.92-5.4Q373.92-4.75 373.77-4.05L373.77-4.05Q374.97-3.75 376.07-3.75L376.07-3.75Q377.37-3.75 378.22-4.45 379.07-5.15 379.07-6.4L379.07-6.4Q379.02-7.55 377.92-8.38 376.82-9.2 374.42-10.35L374.42-10.35Q372.17-11.4 370.72-12.33 369.27-13.25 368.25-14.65 367.22-16.05 367.22-17.95L367.22-17.95Q367.22-22.05 370.65-24.48 374.07-26.9 380.37-26.9L380.37-26.9ZM412.92-26.45Q419.72-26.45 422.94-23.7 426.17-20.95 426.17-16.5L426.17-16.5Q426.17-15 425.77-13.15L425.77-13.15Q424.82-9.05 422.22-5.98 419.62-2.9 415.84-1.23 412.07 0.45 407.67 0.45L407.67 0.45Q400.72 0.45 397.39-2.33 394.07-5.1 394.07-9.7L394.07-9.7Q394.07-11.25 394.47-13.15L394.47-13.15Q395.42-17.05 398.09-20.08 400.77-23.1 404.64-24.78 408.52-26.45 412.92-26.45L412.92-26.45ZM412.77-22Q411.72-22 410.54-20.13 409.37-18.25 407.77-13.05L407.77-13.05Q406.17-7.85 406.17-5.75L406.17-5.75Q406.17-4.65 406.52-4.28 406.87-3.9 407.47-3.9L407.47-3.9Q408.52-3.8 409.64-5.7 410.77-7.6 412.47-13.1L412.47-13.1Q414.02-17.95 414.02-20.15L414.02-20.15Q414.02-21.2 413.69-21.6 413.37-22 412.77-22L412.77-22ZM460.37-16.75L457.32-6.9Q457.22-6.7 457.22-6.3L457.22-6.3Q457.22-5.95 457.39-5.75 457.57-5.55 457.87-5.55L457.87-5.55Q458.47-5.55 458.89-6.08 459.32-6.6 459.47-6.6L459.47-6.6Q459.72-6.6 459.87-6.28 460.02-5.95 460.02-5.5L460.02-5.5Q460.07-4.05 459.07-2.68 458.07-1.3 456.14-0.43 454.22 0.45 451.52 0.45L451.52 0.45Q448.22 0.45 446.27-1.07 444.32-2.6 444.27-5.15L444.27-5.15Q444.27-7 445.17-9.3L445.17-9.3 447.92-16.5Q448.17-17.15 448.17-17.55L448.17-17.55Q448.17-18.2 447.74-18.57 447.32-18.95 446.72-18.95L446.72-18.95Q445.62-18.95 444.62-17.93 443.62-16.9 443.17-15.4L443.17-15.4 440.07-5.2Q439.87-4.65 439.87-4.15L439.87-4.15Q439.87-3.55 440.12-3.18 440.37-2.8 440.82-2.4L440.82-2.4Q441.17-2.1 441.32-1.85 441.47-1.6 441.37-1.25L441.37-1.25Q441.17-0.6 440.42-0.3 439.67 0 438.07 0L438.07 0 426.67 0Q425.37 0 424.79-0.43 424.22-0.85 424.37-1.55L424.37-1.55Q424.57-2.15 425.42-2.6L425.42-2.6Q426.17-3 426.67-3.55 427.17-4.1 427.52-5.3L427.52-5.3 431.97-19.75Q432.07-20 432.07-20.45L432.07-20.45Q432.07-21 431.84-21.3 431.62-21.6 431.12-22.05L431.12-22.05Q430.62-22.45 430.42-22.75 430.22-23.05 430.37-23.55L430.37-23.55Q430.67-24.7 433.52-25.58 436.37-26.45 439.47-26.45L439.47-26.45Q441.97-26.45 443.42-25.08 444.87-23.7 444.72-21.25L444.72-21.25Q446.77-24.2 449.07-25.33 451.37-26.45 454.07-26.45L454.07-26.45Q457.12-26.45 458.99-24.6 460.87-22.75 460.87-19.8L460.87-19.8Q460.87-18.25 460.37-16.75L460.37-16.75Z" fill="#454545" data-fill-palette-color="primary"></path></g></svg></g></svg></g></svg></g></svg></g><g transform="matrix(1,0,0,1,250.37179533881923,0)"><svg viewBox="0 0 66.26098586236384 34.77558768467856" height="34.77558768467856" width="66.26098586236384"><g><svg xmlns="http://www.w3.org/2000/svg" xmlns:xlink="http://www.w3.org/1999/xlink" version="1.1" x="0" y="0" viewBox="5 26.381999999999998 90.001 47.23499999999999" enable-background="new 0 0 100 100" xml:space="preserve" height="34.77558768467856" width="66.26098586236384" class="icon-icon-0" data-fill-palette-color="accent" id="icon-0"><path fill="none" d="M50.482 28.475c-0.03 0.03-0.071 0.048-0.106 0.072C50.411 28.522 50.452 28.505 50.482 28.475z"></path><path fill="none" d="M50.628 28.259c-0.021 0.052-0.06 0.093-0.093 0.138C50.568 28.352 50.606 28.311 50.628 28.259z"></path><path fill="none" d="M50.553 27.618c0.025 0.037 0.058 0.069 0.075 0.111C50.61 27.688 50.578 27.655 50.553 27.618z"></path><path fill="none" d="M50.266 28.621c-0.082 0.034-0.171 0.053-0.265 0.053C50.095 28.674 50.184 28.655 50.266 28.621z"></path><path fill="none" d="M50.001 28.674c-0.375 0-0.68-0.304-0.68-0.68s0.305-0.68 0.68-0.68c-0.376 0-0.681 0.304-0.681 0.68S49.625 28.674 50.001 28.674z"></path><path fill="none" d="M50.001 27.314c0.094 0 0.183 0.019 0.265 0.053C50.184 27.333 50.095 27.314 50.001 27.314z"></path><path fill="none" d="M50.376 27.442c0.036 0.024 0.076 0.041 0.106 0.071C50.452 27.483 50.412 27.466 50.376 27.442z"></path><path fill="none" d="M54.305 70.684c0.375 0 0.678 0.305 0.68 0.68C54.984 70.988 54.68 70.684 54.305 70.684z"></path><path d="M86.63 69.109c0.108-0.227 0.177-0.478 0.177-0.746V28.107c0-0.953-0.772-1.725-1.727-1.725H14.92c-0.953 0-1.724 0.772-1.724 1.725v40.256c0 0.269 0.066 0.52 0.176 0.746H5v2.783c0 0.953 0.773 1.725 1.726 1.725h86.549c0.953 0 1.726-0.771 1.726-1.725v-2.783H86.63zM50.001 27.314c0.094 0 0.183 0.019 0.265 0.053 0.042 0.018 0.074 0.049 0.11 0.075 0.036 0.024 0.076 0.041 0.106 0.071 0.03 0.03 0.047 0.07 0.071 0.105 0.025 0.037 0.058 0.069 0.075 0.111 0.034 0.081 0.054 0.171 0.054 0.265s-0.02 0.183-0.054 0.265c-0.021 0.052-0.06 0.093-0.093 0.138-0.02 0.025-0.031 0.056-0.053 0.078-0.03 0.03-0.071 0.048-0.106 0.072-0.037 0.025-0.069 0.057-0.11 0.074-0.082 0.034-0.171 0.053-0.265 0.053-0.376 0-0.681-0.304-0.681-0.68S49.625 27.314 50.001 27.314zM16.143 29.708h67.714v36.571H16.143V29.708zM54.305 72.046h-8.608c-0.375 0-0.68-0.305-0.68-0.683 0-0.375 0.305-0.68 0.68-0.68h8.608c0.375 0 0.68 0.305 0.68 0.68C54.984 71.741 54.68 72.046 54.305 72.046z" fill="#454545" data-fill-palette-color="accent"></path><polygon points="25.039,48.313 25.039,49.536 25.039,49.537 44.878,49.537 44.878,49.536 44.878,48.313 44.878,48.312   25.039,48.312 " fill="#454545" data-fill-palette-color="accent"></polygon><rect x="36.633" y="58.613" width="3.488" height="1.225" fill="#454545" data-fill-palette-color="accent"></rect><rect x="46.552" y="48.313" width="3.488" height="1.224" fill="#454545" data-fill-palette-color="accent"></rect><rect x="39.377" y="46.296" width="3.488" height="1.224" fill="#454545" data-fill-palette-color="accent"></rect><rect x="20.692" y="31.829" width="3.489" height="1.224" fill="#454545" data-fill-palette-color="accent"></rect><rect x="20.692" y="42.131" width="3.489" height="1.224" fill="#454545" data-fill-palette-color="accent"></rect><rect x="20.692" y="46.296" width="3.489" height="1.224" fill="#454545" data-fill-palette-color="accent"></rect><rect x="20.692" y="48.313" width="3.489" height="1.224" fill="#454545" data-fill-palette-color="accent"></rect><rect x="20.692" y="44.191" width="5.832" height="1.224" fill="#454545" data-fill-palette-color="accent"></rect><rect x="25.039" y="46.296" width="12.665" height="1.224" fill="#454545" data-fill-palette-color="accent"></rect><rect x="20.692" y="50.373" width="3.489" height="1.223" fill="#454545" data-fill-palette-color="accent"></rect><rect x="20.692" y="54.494" width="3.489" height="1.223" fill="#454545" data-fill-palette-color="accent"></rect><rect x="53.637" y="50.373" width="3.488" height="1.223" fill="#454545" data-fill-palette-color="accent"></rect><rect x="25.039" y="50.373" width="27.761" height="1.223" fill="#454545" data-fill-palette-color="accent"></rect><rect x="20.692" y="52.434" width="27.792" height="1.223" fill="#454545" data-fill-palette-color="accent"></rect><rect x="25.039" y="54.494" width="23.444" height="1.223" fill="#454545" data-fill-palette-color="accent"></rect><rect x="20.692" y="56.555" width="17.012" height="1.223" fill="#454545" data-fill-palette-color="accent"></rect><rect x="20.692" y="58.613" width="14.267" height="1.225" fill="#454545" data-fill-palette-color="accent"></rect><rect x="20.692" y="60.674" width="7.134" height="1.225" fill="#454545" data-fill-palette-color="accent"></rect><rect x="20.692" y="62.736" width="5.832" height="1.223" fill="#454545" data-fill-palette-color="accent"></rect><rect x="20.692" y="33.89" width="8.694" height="1.224" fill="#454545" data-fill-palette-color="accent"></rect><rect x="20.692" y="35.95" width="11.594" height="1.224" fill="#454545" data-fill-palette-color="accent"></rect><rect x="20.692" y="38.01" width="8.694" height="1.224" fill="#454545" data-fill-palette-color="accent"></rect><rect x="20.692" y="40.071" width="8.694" height="1.224" fill="#454545" data-fill-palette-color="accent"></rect><rect x="18.798" y="31.829" width="1.058" height="1.224" fill="#454545" data-fill-palette-color="accent"></rect><rect x="18.798" y="33.89" width="1.058" height="1.224" fill="#454545" data-fill-palette-color="accent"></rect><rect x="18.798" y="35.95" width="1.058" height="1.224" fill="#454545" data-fill-palette-color="accent"></rect><rect x="18.798" y="38.01" width="1.058" height="1.224" fill="#454545" data-fill-palette-color="accent"></rect><rect x="18.798" y="40.071" width="1.058" height="1.224" fill="#454545" data-fill-palette-color="accent"></rect><rect x="18.798" y="42.131" width="1.058" height="1.224" fill="#454545" data-fill-palette-color="accent"></rect><rect x="18.798" y="44.191" width="1.058" height="1.224" fill="#454545" data-fill-palette-color="accent"></rect><rect x="18.798" y="46.252" width="1.058" height="1.224" fill="#454545" data-fill-palette-color="accent"></rect><rect x="18.798" y="48.313" width="1.058" height="1.224" fill="#454545" data-fill-palette-color="accent"></rect><rect x="18.798" y="50.373" width="1.058" height="1.223" fill="#454545" data-fill-palette-color="accent"></rect><rect x="18.798" y="52.434" width="1.058" height="1.223" fill="#454545" data-fill-palette-color="accent"></rect><rect x="18.798" y="54.494" width="1.058" height="1.223" fill="#454545" data-fill-palette-color="accent"></rect><rect x="18.798" y="56.555" width="1.058" height="1.223" fill="#454545" data-fill-palette-color="accent"></rect><rect x="18.798" y="58.613" width="1.058" height="1.225" fill="#454545" data-fill-palette-color="accent"></rect><rect x="18.798" y="60.674" width="1.058" height="1.225" fill="#454545" data-fill-palette-color="accent"></rect><rect x="18.798" y="62.736" width="1.058" height="1.223" fill="#454545" data-fill-palette-color="accent"></rect></svg></g></svg></g></svg></g></svg></g></svg></g><g><path d="M151.089 141.609A122.216 122.216 0 1 0 151.089 105.591L152.84 105.591A120.464 120.464 0 1 1 152.84 141.609L151.089 141.609" fill="#454545" stroke="transparent" data-fill-palette-color="tertiary"></path></g></svg></g></svg><rect width="395.52" height="247.2" fill="none" stroke="none" visibility="hidden"></rect></g></svg></g></svg>
