<svg xmlns="http://www.w3.org/2000/svg" version="1.1" xmlns:xlink="http://www.w3.org/1999/xlink" xmlns:svgjs="http://svgjs.dev/svgjs" width="420" height="100" viewBox="0 0 1000 154"><g transform="matrix(1,0,0,1,-0.23837594324623979,0.5245265656523941)"><svg viewBox="0 0 396 61" data-background-color="#ffffff" preserveAspectRatio="xMidYMid meet" height="154" width="1000" xmlns="http://www.w3.org/2000/svg" xmlns:xlink="http://www.w3.org/1999/xlink"><defs></defs><g id="tight-bounds" transform="matrix(1,0,0,1,0.09439687352551118,-0.2077670162649099)"><svg viewBox="0 0 395.52 61.415450296801765" height="61.415450296801765" width="395.52"><g><svg viewBox="0 0 483.40412092280997 75.06189765828273" height="61.415450296801765" width="395.52"><g transform="matrix(1,0,0,1,0,10.373967042497835)"><svg viewBox="0 0 395.5199999999999 54.31396357328706" height="54.31396357328706" width="395.5199999999999"><g><svg viewBox="0 0 395.5199999999999 54.31396357328706" height="54.31396357328706" width="395.5199999999999"><g><svg viewBox="0 0 395.5199999999999 54.31396357328706" height="54.31396357328706" width="395.5199999999999"><g transform="matrix(1,0,0,1,0,0)"><svg width="395.5199999999999" viewBox="-3.9 -36.5 345.87 47.5" height="54.31396357328706" data-palette-color="#2b2b2b"><path d="M0.1 7.35L-3.9 7.35-3.85 4.3-0.6 4.3Q1.65 4.3 2.75 3.1 3.85 1.9 3.85-0.3L3.85-0.3 3.85-25.5 7.35-25.5 7.35 0.1Q7.35 3.45 5.43 5.4 3.5 7.35 0.1 7.35L0.1 7.35ZM5.55-30.1L5.55-30.1Q4.55-30.1 3.8-30.85 3.05-31.6 3.05-32.6L3.05-32.6Q3.05-33.65 3.8-34.38 4.55-35.1 5.55-35.1L5.55-35.1Q6.6-35.1 7.33-34.35 8.05-33.6 8.05-32.6L8.05-32.6Q8.05-31.6 7.33-30.85 6.6-30.1 5.55-30.1ZM26.7 0.65L26.7 0.65Q23.5 0.65 20.85-0.73 18.2-2.1 16.62-4.65 15.05-7.2 15.05-10.65L15.05-10.65 15.05-25.5 18.55-25.5 18.55-10.8Q18.55-8.15 19.72-6.25 20.9-4.35 22.75-3.38 24.6-2.4 26.7-2.4L26.7-2.4Q28.85-2.4 30.72-3.4 32.6-4.4 33.75-6.28 34.9-8.15 34.9-10.8L34.9-10.8 34.9-25.5 38.4-25.5 38.4-10.65Q38.4-7.2 36.82-4.65 35.25-2.1 32.62-0.73 30 0.65 26.7 0.65ZM49.6 0L46.1 0 46.1-14.85Q46.1-18.35 47.67-20.88 49.25-23.4 51.9-24.78 54.55-26.15 57.75-26.15L57.75-26.15Q61-26.15 63.62-24.78 66.25-23.4 67.82-20.88 69.4-18.35 69.4-14.85L69.4-14.85 69.4 0 65.9 0 65.9-14.7Q65.9-17.35 64.75-19.23 63.6-21.1 61.72-22.1 59.85-23.1 57.7-23.1L57.7-23.1Q55.6-23.1 53.75-22.13 51.9-21.15 50.75-19.28 49.6-17.4 49.6-14.7L49.6-14.7 49.6 0ZM80.59 0L77.09 0 77.09-25.5 80.59-25.5 80.59 0ZM78.84-30.1L78.84-30.1Q77.84-30.1 77.09-30.85 76.34-31.6 76.34-32.6L76.34-32.6Q76.34-33.65 77.09-34.38 77.84-35.1 78.84-35.1L78.84-35.1Q79.89-35.1 80.62-34.35 81.34-33.6 81.34-32.6L81.34-32.6Q81.34-31.6 80.62-30.85 79.89-30.1 78.84-30.1ZM101.09-26.15L101.09-26.15Q97.59-26.15 94.64-24.6 91.69-23.05 89.94-20.05 88.19-17.05 88.19-12.8L88.19-12.8 88.19 11 91.69 11 91.69-5.25 91.79-5.25Q92.64-3.55 94.14-2.23 95.64-0.9 97.54-0.15 99.44 0.6 101.54 0.6L101.54 0.6Q104.99 0.6 107.82-1 110.64-2.6 112.34-5.53 114.04-8.45 114.04-12.55L114.04-12.55Q114.04-15.75 113.04-18.28 112.04-20.8 110.27-22.55 108.49-24.3 106.14-25.23 103.79-26.15 101.09-26.15ZM101.04-23.1L101.04-23.1Q103.59-23.1 105.74-21.88 107.89-20.65 109.19-18.32 110.49-16 110.49-12.75L110.49-12.75Q110.49-9.6 109.19-7.28 107.89-4.95 105.77-3.7 103.64-2.45 101.14-2.45L101.14-2.45Q98.64-2.45 96.49-3.68 94.34-4.9 93.04-7.2 91.74-9.5 91.74-12.8L91.74-12.8Q91.74-16.1 93.02-18.4 94.29-20.7 96.42-21.9 98.54-23.1 101.04-23.1ZM139.59 0L133.34 0Q129.24 0 126.01-1.53 122.79-3.05 120.91-5.9 119.04-8.75 119.04-12.75L119.04-12.75Q119.04-16.45 120.54-19.48 122.04-22.5 124.76-24.3 127.49-26.1 131.14-26.1L131.14-26.1Q134.89-26.1 137.49-24.45 140.09-22.8 141.44-20 142.79-17.2 142.79-13.7L142.79-13.7Q142.79-13.2 142.74-12.6 142.69-12 142.59-11.55L142.59-11.55 122.74-11.55Q122.89-8.75 124.34-6.85 125.79-4.95 128.11-4 130.44-3.05 133.14-3.05L133.14-3.05 139.59-3.05 139.59 0ZM122.74-14.05L122.74-14.05 139.24-14.05Q139.24-15.05 139.04-16.28 138.84-17.5 138.31-18.7 137.79-19.9 136.86-20.9 135.94-21.9 134.51-22.53 133.09-23.15 131.04-23.15L131.04-23.15Q129.14-23.15 127.59-22.35 126.04-21.55 124.99-20.23 123.94-18.9 123.36-17.3 122.79-15.7 122.74-14.05ZM152.44 0L148.94 0 148.94-18.25Q148.94-21.65 150.86-23.58 152.79-25.5 156.19-25.5L156.19-25.5 160.59-25.5 160.59-22.45 156.89-22.45Q154.69-22.45 153.56-21.25 152.44-20.05 152.44-17.85L152.44-17.85 152.44 0ZM186.38 0.65L186.38 0.65Q184.18 0.65 182.33-0.25 180.48-1.15 179.41-3.05 178.33-4.95 178.33-8L178.33-8 178.33-25.5 181.83-25.5 181.83-7.3Q181.83-5.6 182.48-4.53 183.13-3.45 184.16-2.93 185.18-2.4 186.38-2.4L186.38-2.4Q187.53-2.4 188.58-2.93 189.63-3.45 190.28-4.55 190.93-5.65 190.93-7.3L190.93-7.3 190.93-17.8Q190.93-20.7 192.01-22.55 193.08-24.4 194.88-25.28 196.68-26.15 198.83-26.15L198.83-26.15Q200.98-26.15 202.78-25.28 204.58-24.4 205.66-22.55 206.73-20.7 206.73-17.8L206.73-17.8 206.73-7.3Q206.73-5.65 207.38-4.55 208.03-3.45 209.11-2.93 210.18-2.4 211.38-2.4L211.38-2.4Q212.53-2.4 213.56-2.93 214.58-3.45 215.23-4.55 215.88-5.65 215.88-7.3L215.88-7.3 215.88-25.5 219.38-25.5 219.38-8Q219.38-4.95 218.31-3.05 217.23-1.15 215.41-0.25 213.58 0.65 211.38 0.65L211.38 0.65Q209.13 0.65 207.28-0.25 205.43-1.15 204.33-3.05 203.23-4.95 203.23-8L203.23-8 203.23-18.3Q203.23-20.05 202.61-21.1 201.98-22.15 200.98-22.63 199.98-23.1 198.83-23.1L198.83-23.1Q197.73-23.1 196.73-22.63 195.73-22.15 195.08-21.1 194.43-20.05 194.43-18.3L194.43-18.3 194.43-8Q194.43-4.95 193.33-3.05 192.23-1.15 190.43-0.25 188.63 0.65 186.38 0.65ZM238.98 0.65L238.98 0.65Q235.13 0.65 232.13-1.13 229.13-2.9 227.43-5.95 225.73-9 225.73-12.75L225.73-12.75Q225.73-16.5 227.43-19.55 229.13-22.6 232.13-24.38 235.13-26.15 238.98-26.15L238.98-26.15Q242.83-26.15 245.8-24.38 248.78-22.6 250.5-19.55 252.23-16.5 252.23-12.75L252.23-12.75Q252.23-9 250.5-5.95 248.78-2.9 245.8-1.13 242.83 0.65 238.98 0.65ZM238.98-2.4L238.98-2.4Q241.83-2.4 244.03-3.78 246.23-5.15 247.45-7.5 248.68-9.85 248.68-12.75L248.68-12.75Q248.68-15.65 247.45-18 246.23-20.35 244.03-21.73 241.83-23.1 238.98-23.1L238.98-23.1Q236.08-23.1 233.9-21.73 231.73-20.35 230.5-18 229.28-15.65 229.28-12.75L229.28-12.75Q229.28-9.85 230.5-7.5 231.73-5.15 233.9-3.78 236.08-2.4 238.98-2.4ZM270.48 0.65L270.48 0.65Q266.63 0.65 263.63-1.13 260.63-2.9 258.93-5.95 257.23-9 257.23-12.75L257.23-12.75Q257.23-16.5 258.93-19.55 260.63-22.6 263.63-24.38 266.63-26.15 270.48-26.15L270.48-26.15Q274.33-26.15 277.3-24.38 280.28-22.6 282-19.55 283.73-16.5 283.73-12.75L283.73-12.75Q283.73-9 282-5.95 280.28-2.9 277.3-1.13 274.33 0.65 270.48 0.65ZM270.48-2.4L270.48-2.4Q273.33-2.4 275.53-3.78 277.73-5.15 278.95-7.5 280.18-9.85 280.18-12.75L280.18-12.75Q280.18-15.65 278.95-18 277.73-20.35 275.53-21.73 273.33-23.1 270.48-23.1L270.48-23.1Q267.58-23.1 265.4-21.73 263.23-20.35 262-18 260.78-15.65 260.78-12.75L260.78-12.75Q260.78-9.85 262-7.5 263.23-5.15 265.4-3.78 267.58-2.4 270.48-2.4ZM301.67 0.65L301.67 0.65Q305.17 0.65 308.12-0.9 311.07-2.45 312.82-5.45 314.57-8.45 314.57-12.7L314.57-12.7 314.57-36.5 311.07-36.5 311.07-20.25 310.97-20.25Q310.12-21.95 308.62-23.28 307.12-24.6 305.22-25.35 303.32-26.1 301.22-26.1L301.22-26.1Q297.77-26.1 294.95-24.5 292.12-22.9 290.42-19.98 288.72-17.05 288.72-12.95L288.72-12.95Q288.72-9.75 289.72-7.23 290.72-4.7 292.5-2.95 294.27-1.2 296.62-0.28 298.97 0.65 301.67 0.65ZM301.72-2.4L301.72-2.4Q299.17-2.4 297.02-3.63 294.87-4.85 293.57-7.18 292.27-9.5 292.27-12.75L292.27-12.75Q292.27-15.9 293.57-18.23 294.87-20.55 297-21.8 299.12-23.05 301.62-23.05L301.62-23.05Q304.12-23.05 306.27-21.83 308.42-20.6 309.72-18.3 311.02-16 311.02-12.7L311.02-12.7Q311.02-9.4 309.75-7.1 308.47-4.8 306.35-3.6 304.22-2.4 301.72-2.4ZM334.22 0L321.62 0 321.62-3.05 333.62-3.05Q335.17-3.05 336.22-3.7 337.27-4.35 337.85-5.4 338.42-6.45 338.42-7.55L338.42-7.55Q338.42-8.65 337.92-9.58 337.42-10.5 336.47-11.1 335.52-11.7 334.07-11.7L334.07-11.7 328.72-11.7Q326.27-11.7 324.5-12.53 322.72-13.35 321.8-14.9 320.87-16.45 320.87-18.5L320.87-18.5Q320.87-20.35 321.77-21.95 322.67-23.55 324.32-24.53 325.97-25.5 328.17-25.5L328.17-25.5 339.72-25.5 339.72-22.45 328.52-22.45Q326.57-22.45 325.47-21.28 324.37-20.1 324.37-18.6L324.37-18.6Q324.37-17.15 325.47-16 326.57-14.85 328.77-14.85L328.77-14.85 333.77-14.85Q336.47-14.85 338.3-13.95 340.12-13.05 341.05-11.45 341.97-9.85 341.97-7.7L341.97-7.7Q341.97-5.75 340.97-3.98 339.97-2.2 338.25-1.1 336.52 0 334.22 0L334.22 0Z" opacity="1" transform="matrix(1,0,0,1,0,0)" fill="#2b2b2b" class="undefined-text-0" data-fill-palette-color="primary" id="text-0"></path></svg></g></svg></g></svg></g></svg></g><g transform="matrix(1,0,0,1,408.34222326452726,0)"><svg viewBox="0 0 75.06189765828273 75.06189765828273" height="75.06189765828273" width="75.06189765828273"><g><svg></svg></g><g id="icon-0"><svg viewBox="0 0 75.06189765828273 75.06189765828273" height="75.06189765828273" width="75.06189765828273"><g><path d="M22.519 75.062c-12.437 0-22.519-10.082-22.519-22.519v-30.024c0-12.437 10.082-22.519 22.519-22.519h30.024c12.437 0 22.519 10.082 22.519 22.519v30.024c0 12.437-10.082 22.519-22.519 22.519z" fill="#2b2b2b" data-fill-palette-color="accent"></path></g><g transform="matrix(1,0,0,1,-0.355911970858628,17.6468823200137)"><svg viewBox="0 0 75.77372159999999 39.768133018255334" height="39.768133018255334" width="75.77372159999999"><g><svg xmlns="http://www.w3.org/2000/svg" xmlns:xlink="http://www.w3.org/1999/xlink" version="1.1" x="0" y="0" viewBox="5 26.381999999999998 90.001 47.23499999999999" enable-background="new 0 0 100 100" xml:space="preserve" height="39.768133018255334" width="75.77372159999999" class="icon-fi-0" data-fill-palette-color="quaternary" id="fi-0"><path fill="none" d="M50.482 28.475c-0.03 0.03-0.071 0.048-0.106 0.072C50.411 28.522 50.452 28.505 50.482 28.475z"></path><path fill="none" d="M50.628 28.259c-0.021 0.052-0.06 0.093-0.093 0.138C50.568 28.352 50.606 28.311 50.628 28.259z"></path><path fill="none" d="M50.553 27.618c0.025 0.037 0.058 0.069 0.075 0.111C50.61 27.688 50.578 27.655 50.553 27.618z"></path><path fill="none" d="M50.266 28.621c-0.082 0.034-0.171 0.053-0.265 0.053C50.095 28.674 50.184 28.655 50.266 28.621z"></path><path fill="none" d="M50.001 28.674c-0.375 0-0.68-0.304-0.68-0.68s0.305-0.68 0.68-0.68c-0.376 0-0.681 0.304-0.681 0.68S49.625 28.674 50.001 28.674z"></path><path fill="none" d="M50.001 27.314c0.094 0 0.183 0.019 0.265 0.053C50.184 27.333 50.095 27.314 50.001 27.314z"></path><path fill="none" d="M50.376 27.442c0.036 0.024 0.076 0.041 0.106 0.071C50.452 27.483 50.412 27.466 50.376 27.442z"></path><path fill="none" d="M54.305 70.684c0.375 0 0.678 0.305 0.68 0.68C54.984 70.988 54.68 70.684 54.305 70.684z"></path><path d="M86.63 69.109c0.108-0.227 0.177-0.478 0.177-0.746V28.107c0-0.953-0.772-1.725-1.727-1.725H14.92c-0.953 0-1.724 0.772-1.724 1.725v40.256c0 0.269 0.066 0.52 0.176 0.746H5v2.783c0 0.953 0.773 1.725 1.726 1.725h86.549c0.953 0 1.726-0.771 1.726-1.725v-2.783H86.63zM50.001 27.314c0.094 0 0.183 0.019 0.265 0.053 0.042 0.018 0.074 0.049 0.11 0.075 0.036 0.024 0.076 0.041 0.106 0.071 0.03 0.03 0.047 0.07 0.071 0.105 0.025 0.037 0.058 0.069 0.075 0.111 0.034 0.081 0.054 0.171 0.054 0.265s-0.02 0.183-0.054 0.265c-0.021 0.052-0.06 0.093-0.093 0.138-0.02 0.025-0.031 0.056-0.053 0.078-0.03 0.03-0.071 0.048-0.106 0.072-0.037 0.025-0.069 0.057-0.11 0.074-0.082 0.034-0.171 0.053-0.265 0.053-0.376 0-0.681-0.304-0.681-0.68S49.625 27.314 50.001 27.314zM16.143 29.708h67.714v36.571H16.143V29.708zM54.305 72.046h-8.608c-0.375 0-0.68-0.305-0.68-0.683 0-0.375 0.305-0.68 0.68-0.68h8.608c0.375 0 0.68 0.305 0.68 0.68C54.984 71.741 54.68 72.046 54.305 72.046z" fill="#ffffff" data-fill-palette-color="quaternary"></path><polygon points="25.039,48.313 25.039,49.536 25.039,49.537 44.878,49.537 44.878,49.536 44.878,48.313 44.878,48.312   25.039,48.312 " fill="#ffffff" data-fill-palette-color="quaternary"></polygon><rect x="36.633" y="58.613" width="3.488" height="1.225" fill="#ffffff" data-fill-palette-color="quaternary"></rect><rect x="46.552" y="48.313" width="3.488" height="1.224" fill="#ffffff" data-fill-palette-color="quaternary"></rect><rect x="39.377" y="46.296" width="3.488" height="1.224" fill="#ffffff" data-fill-palette-color="quaternary"></rect><rect x="20.692" y="31.829" width="3.489" height="1.224" fill="#ffffff" data-fill-palette-color="quaternary"></rect><rect x="20.692" y="42.131" width="3.489" height="1.224" fill="#ffffff" data-fill-palette-color="quaternary"></rect><rect x="20.692" y="46.296" width="3.489" height="1.224" fill="#ffffff" data-fill-palette-color="quaternary"></rect><rect x="20.692" y="48.313" width="3.489" height="1.224" fill="#ffffff" data-fill-palette-color="quaternary"></rect><rect x="20.692" y="44.191" width="5.832" height="1.224" fill="#ffffff" data-fill-palette-color="quaternary"></rect><rect x="25.039" y="46.296" width="12.665" height="1.224" fill="#ffffff" data-fill-palette-color="quaternary"></rect><rect x="20.692" y="50.373" width="3.489" height="1.223" fill="#ffffff" data-fill-palette-color="quaternary"></rect><rect x="20.692" y="54.494" width="3.489" height="1.223" fill="#ffffff" data-fill-palette-color="quaternary"></rect><rect x="53.637" y="50.373" width="3.488" height="1.223" fill="#ffffff" data-fill-palette-color="quaternary"></rect><rect x="25.039" y="50.373" width="27.761" height="1.223" fill="#ffffff" data-fill-palette-color="quaternary"></rect><rect x="20.692" y="52.434" width="27.792" height="1.223" fill="#ffffff" data-fill-palette-color="quaternary"></rect><rect x="25.039" y="54.494" width="23.444" height="1.223" fill="#ffffff" data-fill-palette-color="quaternary"></rect><rect x="20.692" y="56.555" width="17.012" height="1.223" fill="#ffffff" data-fill-palette-color="quaternary"></rect><rect x="20.692" y="58.613" width="14.267" height="1.225" fill="#ffffff" data-fill-palette-color="quaternary"></rect><rect x="20.692" y="60.674" width="7.134" height="1.225" fill="#ffffff" data-fill-palette-color="quaternary"></rect><rect x="20.692" y="62.736" width="5.832" height="1.223" fill="#ffffff" data-fill-palette-color="quaternary"></rect><rect x="20.692" y="33.89" width="8.694" height="1.224" fill="#ffffff" data-fill-palette-color="quaternary"></rect><rect x="20.692" y="35.95" width="11.594" height="1.224" fill="#ffffff" data-fill-palette-color="quaternary"></rect><rect x="20.692" y="38.01" width="8.694" height="1.224" fill="#ffffff" data-fill-palette-color="quaternary"></rect><rect x="20.692" y="40.071" width="8.694" height="1.224" fill="#ffffff" data-fill-palette-color="quaternary"></rect><rect x="18.798" y="31.829" width="1.058" height="1.224" fill="#ffffff" data-fill-palette-color="quaternary"></rect><rect x="18.798" y="33.89" width="1.058" height="1.224" fill="#ffffff" data-fill-palette-color="quaternary"></rect><rect x="18.798" y="35.95" width="1.058" height="1.224" fill="#ffffff" data-fill-palette-color="quaternary"></rect><rect x="18.798" y="38.01" width="1.058" height="1.224" fill="#ffffff" data-fill-palette-color="quaternary"></rect><rect x="18.798" y="40.071" width="1.058" height="1.224" fill="#ffffff" data-fill-palette-color="quaternary"></rect><rect x="18.798" y="42.131" width="1.058" height="1.224" fill="#ffffff" data-fill-palette-color="quaternary"></rect><rect x="18.798" y="44.191" width="1.058" height="1.224" fill="#ffffff" data-fill-palette-color="quaternary"></rect><rect x="18.798" y="46.252" width="1.058" height="1.224" fill="#ffffff" data-fill-palette-color="quaternary"></rect><rect x="18.798" y="48.313" width="1.058" height="1.224" fill="#ffffff" data-fill-palette-color="quaternary"></rect><rect x="18.798" y="50.373" width="1.058" height="1.223" fill="#ffffff" data-fill-palette-color="quaternary"></rect><rect x="18.798" y="52.434" width="1.058" height="1.223" fill="#ffffff" data-fill-palette-color="quaternary"></rect><rect x="18.798" y="54.494" width="1.058" height="1.223" fill="#ffffff" data-fill-palette-color="quaternary"></rect><rect x="18.798" y="56.555" width="1.058" height="1.223" fill="#ffffff" data-fill-palette-color="quaternary"></rect><rect x="18.798" y="58.613" width="1.058" height="1.225" fill="#ffffff" data-fill-palette-color="quaternary"></rect><rect x="18.798" y="60.674" width="1.058" height="1.225" fill="#ffffff" data-fill-palette-color="quaternary"></rect><rect x="18.798" y="62.736" width="1.058" height="1.223" fill="#ffffff" data-fill-palette-color="quaternary"></rect></svg></g></svg></g></svg></g></svg></g></svg></g></svg><rect width="395.52" height="61.415450296801765" fill="none" stroke="none" visibility="hidden"></rect></g></svg></g></svg>